<?xml version="1.0" encoding="UTF-8" standalone="no"?>
<svg xmlns="http://www.w3.org/2000/svg" xmlns:xl="http://www.w3.org/1999/xlink" xmlns:dc="http://purl.org/dc/elements/1.1/" version="1.1" viewBox="0 0 24 24" width="24" height="24">
  <defs/>
  <g id="Icons" transform="translate(551 720)" stroke="none" fill="none" fill-opacity="1" stroke-opacity="1" stroke-dasharray="none">
    <title>ai-shaping-icon-workflow-nodes</title>
    <g id="Icons_ai_shaping_icon_workflow_nodes">
      <title>flow</title>
      <g id="Group_582">
        <g id="Graphic_592"/>
        <g id="Group_584">
          <g id="Graphic_591">
            <path d="M -548.5 -718 L -544.16667 -718 C -543.8905 -718 -543.66667 -717.7761 -543.66667 -717.5 L -543.66667 -713.1667 C -543.66667 -712.8905 -543.8905 -712.6667 -544.16667 -712.6667 L -548.5 -712.6667 C -548.77614 -712.6667 -549 -712.8905 -549 -713.1667 L -549 -717.5 C -549 -717.7761 -548.77614 -718 -548.5 -718 Z" stroke="currentColor" stroke-linecap="round" stroke-linejoin="round" stroke-width="2"/>
          </g>
          <g id="Graphic_590">
            <path d="M -548.5 -703.3333 L -544.16667 -703.3333 C -543.8905 -703.3333 -543.66667 -703.1095 -543.66667 -702.8333 L -543.66667 -698.5 C -543.66667 -698.22386 -543.8905 -698 -544.16667 -698 L -548.5 -698 C -548.77614 -698 -549 -698.22386 -549 -698.5 L -549 -702.8333 C -549 -703.1095 -548.77614 -703.3333 -548.5 -703.3333 Z" stroke="currentColor" stroke-linecap="round" stroke-linejoin="round" stroke-width="2"/>
          </g>
          <g id="Graphic_589">
            <path d="M -535.16667 -710.6667 L -529.5 -710.6667 C -529.22386 -710.6667 -529 -710.4428 -529 -710.1667 L -529 -705.8333 C -529 -705.5572 -529.22386 -705.3333 -529.5 -705.3333 L -535.16667 -705.3333 C -535.4428 -705.3333 -535.66667 -705.5572 -535.66667 -705.8333 L -535.66667 -710.1667 C -535.66667 -710.4428 -535.4428 -710.6667 -535.16667 -710.6667 Z" stroke="currentColor" stroke-linecap="round" stroke-linejoin="round" stroke-width="2"/>
          </g>
          <g id="Graphic_588">
            <line x1="-546.33333" y1="-712.6667" x2="-546.33333" y2="-703.3333" stroke="currentColor" stroke-linecap="round" stroke-linejoin="round" stroke-width="2"/>
          </g>
          <g id="Graphic_587">
            <line x1="-543.66667" y1="-700.6667" x2="-539" y2="-700.6667" stroke="currentColor" stroke-linecap="round" stroke-linejoin="round" stroke-width="2"/>
          </g>
          <g id="Graphic_586">
            <path d="M -539 -700.6667 L -539 -708 L -535.66667 -708" stroke="currentColor" stroke-linecap="round" stroke-linejoin="round" stroke-width="2"/>
          </g>
          <g id="Graphic_585">
            <path d="M -537 -709.3333 L -535.66667 -708 L -537 -706.6667" stroke="currentColor" stroke-linecap="round" stroke-linejoin="round" stroke-width="2"/>
          </g>
        </g>
        <g id="Graphic_583"/>
      </g>
    </g>
  </g>
</svg>
